<svg xmlns="http://www.w3.org/2000/svg" xmlns:xlink="http://www.w3.org/1999/xlink" x="0" y="0" width="662" height="312" style="
        width:662px;
        height:312px;
        background: transparent;
        fill: none;
">
        
        
        <svg xmlns="http://www.w3.org/2000/svg" class="role-diagram-draw-area"><g class="shapes-region" style="stroke: black; fill: none;"><g class="composite-shape" data-amt="diagram/shapes/plot" transform="matrix(1,0,0,1,20,10)"><g><g/><g><g class="test-xti" style="font-family: Asana-Math, Asana;"><line x1="0" y1="245" x2="616" y2="245" fill="none" stroke="rgb(50,50,50)" stroke-opacity="1" stroke-width="1"/><line x1="2.7999999999999967" y1="241" x2="2.7999999999999967" y2="249" fill="none" stroke="rgb(50,50,50)" stroke-opacity="1" stroke-width="1"/><line x1="52.49999999999999" y1="241" x2="52.49999999999999" y2="249" fill="none" stroke="rgb(50,50,50)" stroke-opacity="1" stroke-width="1"/><line x1="102.2" y1="241" x2="102.2" y2="249" fill="none" stroke="rgb(50,50,50)" stroke-opacity="1" stroke-width="1"/><line x1="151.9" y1="241" x2="151.9" y2="249" fill="none" stroke="rgb(50,50,50)" stroke-opacity="1" stroke-width="1"/><line x1="201.60000000000002" y1="241" x2="201.60000000000002" y2="249" fill="none" stroke="rgb(50,50,50)" stroke-opacity="1" stroke-width="1"/><line x1="251.3" y1="241" x2="251.3" y2="249" fill="none" stroke="rgb(50,50,50)" stroke-opacity="1" stroke-width="1"/><line x1="350.7" y1="241" x2="350.7" y2="249" fill="none" stroke="rgb(50,50,50)" stroke-opacity="1" stroke-width="1"/><line x1="400.40000000000003" y1="241" x2="400.40000000000003" y2="249" fill="none" stroke="rgb(50,50,50)" stroke-opacity="1" stroke-width="1"/><line x1="450.1000000000001" y1="241" x2="450.1000000000001" y2="249" fill="none" stroke="rgb(50,50,50)" stroke-opacity="1" stroke-width="1"/><line x1="499.8" y1="241" x2="499.8" y2="249" fill="none" stroke="rgb(50,50,50)" stroke-opacity="1" stroke-width="1"/><line x1="549.5" y1="241" x2="549.5" y2="249" fill="none" stroke="rgb(50,50,50)" stroke-opacity="1" stroke-width="1"/><line x1="599.2" y1="241" x2="599.2" y2="249" fill="none" stroke="rgb(50,50,50)" stroke-opacity="1" stroke-width="1"/><path d="M611,241.4 L619,245 L611,248.6 Z" stroke="none" stroke-width="1" fill="rgb(50,50,50)" fill-opacity="1"/></g><g class="test-yti" style="font-family: Asana-Math, Asana;"><line x1="301" y1="4" x2="301" y2="270" fill="none" stroke="rgb(50,50,50)" stroke-opacity="1" stroke-width="1"/><line x1="297" y1="138.95" x2="305" y2="138.95" fill="none" stroke="rgb(50,50,50)" stroke-opacity="1" stroke-width="1"/><line x1="297" y1="32.900000000000006" x2="305" y2="32.900000000000006" fill="none" stroke="rgb(50,50,50)" stroke-opacity="1" stroke-width="1"/><path d="M297.4,9 L301,1 L304.6,9 Z" stroke="none" stroke-width="1" fill="rgb(50,50,50)" fill-opacity="1"/></g><g class="test-plot-expression"><defs><clipPath id="cpbgwidkx91"><rect x="1" y="1" width="618" height="268"/></clipPath></defs><g clip-path="url(#cpbgwidkx91)"><path d=" M301.00,32.90 L301.29,32.90 L301.58,32.90 L301.87,32.90 L302.16,32.90 L302.45,32.90 L302.74,32.90 L303.03,32.90 L303.32,32.90 L303.61,32.90 L303.90,32.90 L304.19,32.90 L304.48,32.90 L304.77,32.90 L305.06,32.90 L305.35,32.90 L305.64,32.90 L305.93,32.90 L306.22,32.90 L306.52,32.90 L306.81,32.90 L307.10,32.90 L307.39,32.90 L307.68,32.90 L307.97,32.90 L308.26,32.90 L308.55,32.90 L308.84,32.90 L309.13,32.90 L309.42,32.90 L309.71,32.90 L310.00,32.90 L310.29,32.90 L310.58,32.90 L310.87,32.90 L311.16,32.90 L311.45,32.90 L311.74,32.90 L312.03,32.90 L312.32,32.90 L312.61,32.90 L312.90,32.90 L313.19,32.90 L313.48,32.90 L313.77,32.90 L314.06,32.90 L314.35,32.90 L314.64,32.90 L314.93,32.90 L315.22,32.90 L315.51,32.90 L315.80,32.90 L316.09,32.90 L316.38,32.90 L316.67,32.90 L316.96,32.90 L317.25,32.90 L317.55,32.90 L317.84,32.90 L318.13,32.90 L318.42,32.90 L318.71,32.90 L319.00,32.90 L319.29,32.90 L319.58,32.90 L319.87,32.90 L320.16,32.90 L320.45,32.90 L320.74,32.90 L321.03,32.90 L321.32,32.90 L321.61,32.90 L321.90,32.90 L322.19,32.90 L322.48,32.90 L322.77,32.90 L323.06,32.90 L323.35,32.90 L323.64,32.90 L323.93,32.90 L324.22,32.90 L324.51,32.90 L324.80,32.90 L325.09,32.90 L325.38,32.90 L325.67,32.90 L325.96,32.90 L326.25,32.90 L326.54,32.90 L326.83,32.90 L327.12,32.90 L327.41,32.90 L327.70,32.90 L327.99,32.90 L328.28,32.90 L328.58,32.90 L328.87,32.90 L329.16,32.90 L329.45,32.90 L329.74,32.90 L330.03,32.90 L330.32,32.90 L330.61,32.90 L330.90,32.90 L331.19,32.90 L331.48,32.90 L331.77,32.90 L332.06,32.90 L332.35,32.90 L332.64,32.90 L332.93,32.90 L333.22,32.90 L333.51,32.90 L333.80,32.90 L334.09,32.90 L334.38,32.90 L334.67,32.90 L334.96,32.90 L335.25,32.90 L335.54,32.90 L335.83,32.90 L336.12,32.90 L336.41,32.90 L336.70,32.90 L336.99,32.90 L337.28,32.90 L337.57,32.90 L337.86,32.90 L338.15,32.90 L338.44,32.90 L338.73,32.90 L339.02,32.90 L339.31,32.90 L339.61,32.90 L339.90,32.90 L340.19,32.90 L340.48,32.90 L340.77,32.90 L341.06,32.90 L341.35,32.90 L341.64,32.90 L341.93,32.90 L342.22,32.90 L342.51,32.90 L342.80,32.90 L343.09,32.90 L343.38,32.90 L343.67,32.90 L343.96,32.90 L344.25,32.90 L344.54,32.90 L344.83,32.90 L345.12,32.90 L345.41,32.90 L345.70,32.90 L345.99,32.90 L346.28,32.90 L346.57,32.90 L346.86,32.90 L347.15,32.90 L347.44,32.90 L347.73,32.90 L348.02,32.90 L348.31,32.90 L348.60,32.90 L348.89,32.90 L349.18,32.90 L349.47,32.90 L349.76,32.90 L350.05,32.90 L350.34,32.90 L350.64,32.90 L350.93,32.90 L351.22,32.90 L351.51,32.90 L351.80,32.90 L352.09,32.90 L352.38,32.90 L352.67,32.90 L352.96,32.90 L353.25,32.90 L353.54,32.90 L353.83,32.90 L354.12,32.90 L354.41,32.90 L354.70,32.90 L354.99,32.90 L355.28,32.90 L355.57,32.90 L355.86,32.90 L356.15,32.90 L356.44,32.90 L356.73,32.90 L357.02,32.90 L357.31,32.90 L357.60,32.90 L357.89,32.90 L358.18,32.90 L358.47,32.90 L358.76,32.90 L359.05,32.90 L359.34,32.90 L359.63,32.90 L359.92,32.90 L360.21,32.90 L360.50,32.90 L360.79,32.90 L361.08,32.90 L361.37,32.90 L361.67,32.90 L361.96,32.90 L362.25,32.90 L362.54,32.90 L362.83,32.90 L363.12,32.90 L363.41,32.90 L363.70,32.90 L363.99,32.90 L364.28,32.90 L364.57,32.90 L364.86,32.90 L365.15,32.90 L365.44,32.90 L365.73,32.90 L366.02,32.90 L366.31,32.90 L366.60,32.90 L366.89,32.90 L367.18,32.90 L367.47,32.90 L367.76,32.90 L368.05,32.90 L368.34,32.90 L368.63,32.90 L368.92,32.90 L369.21,32.90 L369.50,32.90 L369.79,32.90 L370.08,32.90 L370.37,32.90 L370.66,32.90 L370.95,32.90 L371.24,32.90 L371.53,32.90 L371.82,32.90 L372.11,32.90 L372.40,32.90 L372.70,32.90 L372.99,32.90 L373.28,32.90 L373.57,32.90 L373.86,32.90 L374.15,32.90 L374.44,32.90 L374.73,32.90 L375.02,32.90 L375.31,32.90 L375.60,32.90 L375.89,32.90 L376.18,32.90 L376.47,32.90 L376.76,32.90 L377.05,32.90 L377.34,32.90 L377.63,32.90 L377.92,32.90 L378.21,32.90 L378.50,32.90 L378.79,32.90 L379.08,32.90 L379.37,32.90 L379.66,32.90 L379.95,32.90 L380.24,32.90 L380.53,32.90 L380.82,32.90 L381.11,32.90 L381.40,32.90 L381.69,32.90 L381.98,32.90 L382.27,32.90 L382.56,32.90 L382.85,32.90 L383.14,32.90 L383.43,32.90 L383.73,32.90 L384.02,32.90 L384.31,32.90 L384.60,32.90 L384.89,32.90 L385.18,32.90 L385.47,32.90 L385.76,32.90 L386.05,32.90 L386.34,32.90 L386.63,32.90 L386.92,32.90 L387.21,32.90 L387.50,32.90 L387.79,32.90 L388.08,32.90 L388.37,32.90 L388.66,32.90 L388.95,32.90 L389.24,32.90 L389.53,32.90 L389.82,32.90 L390.11,32.90 L390.40,32.90 L390.69,32.90 L390.98,32.90 L391.27,32.90 L391.56,32.90 L391.85,32.90 L392.14,32.90 L392.43,32.90 L392.72,32.90 L393.01,32.90 L393.30,32.90 L393.59,32.90 L393.88,32.90 L394.17,32.90 L394.46,32.90 L394.76,32.90 L395.05,32.90 L395.34,32.90 L395.63,32.90 L395.92,32.90 L396.21,32.90 L396.50,32.90 L396.79,32.90 L397.08,32.90 L397.37,32.90 L397.66,32.90 L397.95,32.90 L398.24,32.90 L398.53,32.90 L398.82,32.90 L399.11,32.90 L399.40,32.90 L399.69,32.90 L399.98,32.90 L400.27,32.90 L400.56,32.90 L400.85,32.90 L401.14,32.90 L401.43,32.90 L401.72,32.90 L402.01,32.90 L402.30,32.90 L402.59,32.90 L402.88,32.90 L403.17,32.90 L403.46,32.90 L403.75,32.90 L404.04,32.90 L404.33,32.90 L404.62,32.90 L404.91,32.90 L405.20,32.90 L405.49,32.90 L405.79,32.90 L406.08,32.90 L406.37,32.90 L406.66,32.90 L406.95,32.90 L407.24,32.90 L407.53,32.90 L407.82,32.90 L408.11,32.90 L408.40,32.90 L408.69,32.90 L408.98,32.90 L409.27,32.90 L409.56,32.90 L409.85,32.90 L410.14,32.90 L410.43,32.90 L410.72,32.90 L411.01,32.90 L411.30,32.90 L411.59,32.90 L411.88,32.90 L412.17,32.90 L412.46,32.90 L412.75,32.90 L413.04,32.90 L413.33,32.90 L413.62,32.90 L413.91,32.90 L414.20,32.90 L414.49,32.90 L414.78,32.90 L415.07,32.90 L415.36,32.90 L415.65,32.90 L415.94,32.90 L416.23,32.90 L416.53,32.90 L416.82,32.90 L417.11,32.90 L417.40,32.90 L417.69,32.90 L417.98,32.90 L418.27,32.90 L418.56,32.90 L418.85,32.90 L419.14,32.90 L419.43,32.90 L419.72,32.90 L420.01,32.90 L420.30,32.90 L420.59,32.90 L420.88,32.90 L421.17,32.90 L421.46,32.90 L421.75,32.90 L422.04,32.90 L422.33,32.90 L422.62,32.90 L422.91,32.90 L423.20,32.90 L423.49,32.90 L423.78,32.90 L424.07,32.90 L424.36,32.90 L424.65,32.90 L424.94,32.90 L425.23,32.90 L425.52,32.90 L425.81,32.90 L426.10,32.90 L426.39,32.90 L426.68,32.90 L426.97,32.90 L427.26,32.90 L427.56,32.90 L427.85,32.90 L428.14,32.90 L428.43,32.90 L428.72,32.90 L429.01,32.90 L429.30,32.90 L429.59,32.90 L429.88,32.90 L430.17,32.90 L430.46,32.90 L430.75,32.90 L431.04,32.90 L431.33,32.90 L431.62,32.90 L431.91,32.90 L432.20,32.90 L432.49,32.90 L432.78,32.90 L433.07,32.90 L433.36,32.90 L433.65,32.90 L433.94,32.90 L434.23,32.90 L434.52,32.90 L434.81,32.90 L435.10,32.90 L435.39,32.90 L435.68,32.90 L435.97,32.90 L436.26,32.90 L436.55,32.90 L436.84,32.90 L437.13,32.90 L437.42,32.90 L437.71,32.90 L438.00,32.90 L438.29,32.90 L438.59,32.90 L438.88,32.90 L439.17,32.90 L439.46,32.90 L439.75,32.90 L440.04,32.90 L440.33,32.90 L440.62,32.90 L440.91,32.90 L441.20,32.90 L441.49,32.90 L441.78,32.90 L442.07,32.90 L442.36,32.90 L442.65,32.90 L442.94,32.90 L443.23,32.90 L443.52,32.90 L443.81,32.90 L444.10,32.90 L444.39,32.90 L444.68,32.90 L444.97,32.90 L445.26,32.90 L445.55,32.90 L445.84,32.90 L446.13,32.90 L446.42,32.90 L446.71,32.90 L447.00,32.90 L447.29,32.90 L447.58,32.90 L447.87,32.90 L448.16,32.90 L448.45,32.90 L448.74,32.90 L449.03,32.90 L449.32,32.90 L449.62,32.90 L449.91,32.90 L450.20,32.90 L450.49,32.90 L450.78,32.90 L451.07,32.90 L451.36,32.90 L451.65,32.90 L451.94,32.90 L452.23,32.90 L452.52,32.90 L452.81,32.90 L453.10,32.90 L453.39,32.90 L453.68,32.90 L453.97,32.90 L454.26,32.90 L454.55,32.90 L454.84,32.90 L455.13,32.90 L455.42,32.90 L455.71,32.90 L456.00,32.90 L456.29,32.90 L456.58,32.90 L456.87,32.90 L457.16,32.90 L457.45,32.90 L457.74,32.90 L458.03,32.90 L458.32,32.90 L458.61,32.90 L458.90,32.90 L459.19,32.90 L459.48,32.90 L459.77,32.90 L460.06,32.90 L460.35,32.90 L460.65,32.90 L460.94,32.90 L461.23,32.90 L461.52,32.90 L461.81,32.90 L462.10,32.90 L462.39,32.90 L462.68,32.90 L462.97,32.90 L463.26,32.90 L463.55,32.90 L463.84,32.90 L464.13,32.90 L464.42,32.90 L464.71,32.90 L465.00,32.90 L465.29,32.90 L465.58,32.90 L465.87,32.90 L466.16,32.90 L466.45,32.90 L466.74,32.90 L467.03,32.90 L467.32,32.90 L467.61,32.90 L467.90,32.90 L468.19,32.90 L468.48,32.90 L468.77,32.90 L469.06,32.90 L469.35,32.90 L469.64,32.90 L469.93,32.90 L470.22,32.90 L470.51,32.90 L470.80,32.90 L471.09,32.90 L471.38,32.90 L471.68,32.90 L471.97,32.90 L472.26,32.90 L472.55,32.90 L472.84,32.90 L473.13,32.90 L473.42,32.90 L473.71,32.90 L474.00,32.90 L474.29,32.90 L474.58,32.90 L474.87,32.90 L475.16,32.90 L475.45,32.90 L475.74,32.90 L476.03,32.90 L476.32,32.90 L476.61,32.90 L476.90,32.90 L477.19,32.90 L477.48,32.90 L477.77,32.90 L478.06,32.90 L478.35,32.90 L478.64,32.90 L478.93,32.90 L479.22,32.90 L479.51,32.90 L479.80,32.90 L480.09,32.90 L480.38,32.90 L480.67,32.90 L480.96,32.90 L481.25,32.90 L481.54,32.90 L481.83,32.90 L482.12,32.90 L482.41,32.90 L482.71,32.90 L483.00,32.90 L483.29,32.90 L483.58,32.90 L483.87,32.90 L484.16,32.90 L484.45,32.90 L484.74,32.90 L485.03,32.90 L485.32,32.90 L485.61,32.90 L485.90,32.90 L486.19,32.90 L486.48,32.90 L486.77,32.90 L487.06,32.90 L487.35,32.90 L487.64,32.90 L487.93,32.90 L488.22,32.90 L488.51,32.90 L488.80,32.90 L489.09,32.90 L489.38,32.90 L489.67,32.90 L489.96,32.90 L490.25,32.90 L490.54,32.90 L490.83,32.90 L491.12,32.90 L491.41,32.90 L491.70,32.90 L491.99,32.90 L492.28,32.90 L492.57,32.90 L492.86,32.90 L493.15,32.90 L493.44,32.90 L493.74,32.90 L494.03,32.90 L494.32,32.90 L494.61,32.90 L494.90,32.90 L495.19,32.90 L495.48,32.90 L495.77,32.90 L496.06,32.90 L496.35,32.90 L496.64,32.90 L496.93,32.90 L497.22,32.90 L497.51,32.90 L497.80,32.90 L498.09,32.90 L498.38,32.90 L498.67,32.90 L498.96,32.90 L499.25,32.90 L499.54,32.90 L499.83,32.90 L500.12,32.90 L500.41,32.90 L500.70,32.90 L500.99,32.90 L501.28,32.90 L501.57,32.90 L501.86,32.90 L502.15,32.90 L502.44,32.90 L502.73,32.90 L503.02,32.90 L503.31,32.90 L503.60,32.90 L503.89,32.90 L504.18,32.90 L504.47,32.90 L504.77,32.90 L505.06,32.90 L505.35,32.90 L505.64,32.90 L505.93,32.90 L506.22,32.90 L506.51,32.90 L506.80,32.90 L507.09,32.90 L507.38,32.90 L507.67,32.90 L507.96,32.90 L508.25,32.90 L508.54,32.90 L508.83,32.90 L509.12,32.90 L509.41,32.90 L509.70,32.90 L509.99,32.90 L510.28,32.90 L510.57,32.90 L510.86,32.90 L511.15,32.90 L511.44,32.90 L511.73,32.90 L512.02,32.90 L512.31,32.90 L512.60,32.90 L512.89,32.90 L513.18,32.90 L513.47,32.90 L513.76,32.90 L514.05,32.90 L514.34,32.90 L514.63,32.90 L514.92,32.90 L515.21,32.90 L515.51,32.90 L515.80,32.90 L516.09,32.90 L516.38,32.90 L516.67,32.90 L516.96,32.90 L517.25,32.90 L517.54,32.90 L517.83,32.90 L518.12,32.90 L518.41,32.90 L518.70,32.90 L518.99,32.90 L519.28,32.90 L519.57,32.90 L519.86,32.90 L520.15,32.90 L520.44,32.90 L520.73,32.90 L521.02,32.90 L521.31,32.90 L521.60,32.90 L521.89,32.90 L522.18,32.90 L522.47,32.90 L522.76,32.90 L523.05,32.90 L523.34,32.90 L523.63,32.90 L523.92,32.90 L524.21,32.90 L524.50,32.90 L524.79,32.90 L525.08,32.90 L525.37,32.90 L525.66,32.90 L525.95,32.90 L526.24,32.90 L526.54,32.90 L526.83,32.90 L527.12,32.90 L527.41,32.90 L527.70,32.90 L527.99,32.90 L528.28,32.90 L528.57,32.90 L528.86,32.90 L529.15,32.90 L529.44,32.90 L529.73,32.90 L530.02,32.90 L530.31,32.90 L530.60,32.90 L530.89,32.90 L531.18,32.90 L531.47,32.90 L531.76,32.90 L532.05,32.90 L532.34,32.90 L532.63,32.90 L532.92,32.90 L533.21,32.90 L533.50,32.90 L533.79,32.90 L534.08,32.90 L534.37,32.90 L534.66,32.90 L534.95,32.90 L535.24,32.90 L535.53,32.90 L535.82,32.90 L536.11,32.90 L536.40,32.90 L536.69,32.90 L536.98,32.90 L537.27,32.90 L537.57,32.90 L537.86,32.90 L538.15,32.90 L538.44,32.90 L538.73,32.90 L539.02,32.90 L539.31,32.90 L539.60,32.90 L539.89,32.90 L540.18,32.90 L540.47,32.90 L540.76,32.90 L541.05,32.90 L541.34,32.90 L541.63,32.90 L541.92,32.90 L542.21,32.90 L542.50,32.90 L542.79,32.90 L543.08,32.90 L543.37,32.90 L543.66,32.90 L543.95,32.90 L544.24,32.90 L544.53,32.90 L544.82,32.90 L545.11,32.90 L545.40,32.90 L545.69,32.90 L545.98,32.90 L546.27,32.90 L546.56,32.90 L546.85,32.90 L547.14,32.90 L547.43,32.90 L547.72,32.90 L548.01,32.90 L548.30,32.90 L548.60,32.90 L548.89,32.90 L549.18,32.90 L549.47,32.90 L549.76,32.90 L550.05,32.90 L550.34,32.90 L550.63,32.90 L550.92,32.90 L551.21,32.90 L551.50,32.90 L551.79,32.90 L552.08,32.90 L552.37,32.90 L552.66,32.90 L552.95,32.90 L553.24,32.90 L553.53,32.90 L553.82,32.90 L554.11,32.90 L554.40,32.90 L554.69,32.90 L554.98,32.90 L555.27,32.90 L555.56,32.90 L555.85,32.90 L556.14,32.90 L556.43,32.90 L556.72,32.90 L557.01,32.90 L557.30,32.90 L557.59,32.90 L557.88,32.90 L558.17,32.90 L558.46,32.90 L558.75,32.90 L559.04,32.90 L559.33,32.90 L559.63,32.90 L559.92,32.90 L560.21,32.90 L560.50,32.90 L560.79,32.90 L561.08,32.90 L561.37,32.90 L561.66,32.90 L561.95,32.90 L562.24,32.90 L562.53,32.90 L562.82,32.90 L563.11,32.90 L563.40,32.90 L563.69,32.90 L563.98,32.90 L564.27,32.90 L564.56,32.90 L564.85,32.90 L565.14,32.90 L565.43,32.90 L565.72,32.90 L566.01,32.90 L566.30,32.90 L566.59,32.90 L566.88,32.90 L567.17,32.90 L567.46,32.90 L567.75,32.90 L568.04,32.90 L568.33,32.90 L568.62,32.90 L568.91,32.90 L569.20,32.90 L569.49,32.90 L569.78,32.90 L570.07,32.90 L570.36,32.90 L570.66,32.90 L570.95,32.90 L571.24,32.90 L571.53,32.90 L571.82,32.90 L572.11,32.90 L572.40,32.90 L572.69,32.90 L572.98,32.90 L573.27,32.90 L573.56,32.90 L573.85,32.90 L574.14,32.90 L574.43,32.90 L574.72,32.90 L575.01,32.90 L575.30,32.90 L575.59,32.90 L575.88,32.90 L576.17,32.90 L576.46,32.90 L576.75,32.90 L577.04,32.90 L577.33,32.90 L577.62,32.90 L577.91,32.90 L578.20,32.90 L578.49,32.90 L578.78,32.90 L579.07,32.90 L579.36,32.90 L579.65,32.90 L579.94,32.90 L580.23,32.90 L580.52,32.90 L580.81,32.90 L581.10,32.90 L581.39,32.90 L581.69,32.90 L581.98,32.90 L582.27,32.90 L582.56,32.90 L582.85,32.90 L583.14,32.90 L583.43,32.90 L583.72,32.90 L584.01,32.90 L584.30,32.90 L584.59,32.90 L584.88,32.90 L585.17,32.90 L585.46,32.90 L585.75,32.90 L586.04,32.90 L586.33,32.90 L586.62,32.90 L586.91,32.90 L587.20,32.90 L587.49,32.90 L587.78,32.90 L588.07,32.90 L588.36,32.90 L588.65,32.90 L588.94,32.90 L589.23,32.90 L589.52,32.90 L589.81,32.90 L590.10,32.90 L590.39,32.90 L590.68,32.90 L590.97,32.90 L591.26,32.90 L591.55,32.90 L591.84,32.90 L592.13,32.90 L592.42,32.90 L592.72,32.90 L593.01,32.90 L593.30,32.90 L593.59,32.90 L593.88,32.90 L594.17,32.90 L594.46,32.90 L594.75,32.90 L595.04,32.90 L595.33,32.90 L595.62,32.90 L595.91,32.90 L596.20,32.90 L596.49,32.90 L596.78,32.90 L597.07,32.90 L597.36,32.90 L597.65,32.90 L597.94,32.90 L598.23,32.90 L598.52,32.90 L598.81,32.90 L599.10,32.90 L599.39,32.90 L599.68,32.90 L599.97,32.90 L600.26,32.90 L600.55,32.90 L600.84,32.90 L601.13,32.90 L601.42,32.90 L601.71,32.90 L602.00,32.90 L602.29,32.90 L602.58,32.90 L602.87,32.90 L603.16,32.90 L603.45,32.90 L603.75,32.90 L604.04,32.90 L604.33,32.90 L604.62,32.90 L604.91,32.90 L605.20,32.90 L605.49,32.90 L605.78,32.90 L606.07,32.90 L606.36,32.90 L606.65,32.90 L606.94,32.90 L607.23,32.90 L607.52,32.90 L607.81,32.90 L608.10,32.90 L608.39,32.90 L608.68,32.90 L608.97,32.90 L609.26,32.90 L609.55,32.90 L609.84,32.90 L610.13,32.90 L610.42,32.90 L610.71,32.90 L611.00,32.90 L611.29,32.90 L611.58,32.90 L611.87,32.90 L612.16,32.90 L612.45,32.90 L612.74,32.90 L613.03,32.90 L613.32,32.90 L613.61,32.90 L613.90,32.90 L614.19,32.90 L614.48,32.90 L614.78,32.90 L615.07,32.90 L615.36,32.90 L615.65,32.90 L615.94,32.90 L616.23,32.90 L616.52,32.90 L616.81,32.90 L617.10,32.90 L617.39,32.90 L617.68,32.90 L617.97,32.90 L618.26,32.90 L618.55,32.90 L618.84,32.90 L619.13,32.90 L619.42,32.90 L619.71,32.90 L620.00,32.90" style="stroke-width: 2; stroke: rgb(68, 128, 194); stroke-opacity: 0.8;"/><path d=" M0.00,245.00 L0.27,245.00 L0.55,245.00 L0.82,245.00 L1.10,245.00 L1.37,245.00 L1.64,245.00 L1.92,245.00 L2.19,245.00 L2.46,245.00 L2.74,245.00 L3.01,245.00 L3.29,245.00 L3.56,245.00 L3.83,245.00 L4.11,245.00 L4.38,245.00 L4.66,245.00 L4.93,245.00 L5.20,245.00 L5.48,245.00 L5.75,245.00 L6.03,245.00 L6.30,245.00 L6.57,245.00 L6.85,245.00 L7.12,245.00 L7.39,245.00 L7.67,245.00 L7.94,245.00 L8.22,245.00 L8.49,245.00 L8.76,245.00 L9.04,245.00 L9.31,245.00 L9.59,245.00 L9.86,245.00 L10.13,245.00 L10.41,245.00 L10.68,245.00 L10.96,245.00 L11.23,245.00 L11.50,245.00 L11.78,245.00 L12.05,245.00 L12.32,245.00 L12.60,245.00 L12.87,245.00 L13.15,245.00 L13.42,245.00 L13.69,245.00 L13.97,245.00 L14.24,245.00 L14.52,245.00 L14.79,245.00 L15.06,245.00 L15.34,245.00 L15.61,245.00 L15.89,245.00 L16.16,245.00 L16.43,245.00 L16.71,245.00 L16.98,245.00 L17.25,245.00 L17.53,245.00 L17.80,245.00 L18.08,245.00 L18.35,245.00 L18.62,245.00 L18.90,245.00 L19.17,245.00 L19.45,245.00 L19.72,245.00 L19.99,245.00 L20.27,245.00 L20.54,245.00 L20.82,245.00 L21.09,245.00 L21.36,245.00 L21.64,245.00 L21.91,245.00 L22.18,245.00 L22.46,245.00 L22.73,245.00 L23.01,245.00 L23.28,245.00 L23.55,245.00 L23.83,245.00 L24.10,245.00 L24.38,245.00 L24.65,245.00 L24.92,245.00 L25.20,245.00 L25.47,245.00 L25.75,245.00 L26.02,245.00 L26.29,245.00 L26.57,245.00 L26.84,245.00 L27.11,245.00 L27.39,245.00 L27.66,245.00 L27.94,245.00 L28.21,245.00 L28.48,245.00 L28.76,245.00 L29.03,245.00 L29.31,245.00 L29.58,245.00 L29.85,245.00 L30.13,245.00 L30.40,245.00 L30.68,245.00 L30.95,245.00 L31.22,245.00 L31.50,245.00 L31.77,245.00 L32.04,245.00 L32.32,245.00 L32.59,245.00 L32.87,245.00 L33.14,245.00 L33.41,245.00 L33.69,245.00 L33.96,245.00 L34.24,245.00 L34.51,245.00 L34.78,245.00 L35.06,245.00 L35.33,245.00 L35.61,245.00 L35.88,245.00 L36.15,245.00 L36.43,245.00 L36.70,245.00 L36.97,245.00 L37.25,245.00 L37.52,245.00 L37.80,245.00 L38.07,245.00 L38.34,245.00 L38.62,245.00 L38.89,245.00 L39.17,245.00 L39.44,245.00 L39.71,245.00 L39.99,245.00 L40.26,245.00 L40.54,245.00 L40.81,245.00 L41.08,245.00 L41.36,245.00 L41.63,245.00 L41.90,245.00 L42.18,245.00 L42.45,245.00 L42.73,245.00 L43.00,245.00 L43.27,245.00 L43.55,245.00 L43.82,245.00 L44.10,245.00 L44.37,245.00 L44.64,245.00 L44.92,245.00 L45.19,245.00 L45.46,245.00 L45.74,245.00 L46.01,245.00 L46.29,245.00 L46.56,245.00 L46.83,245.00 L47.11,245.00 L47.38,245.00 L47.66,245.00 L47.93,245.00 L48.20,245.00 L48.48,245.00 L48.75,245.00 L49.03,245.00 L49.30,245.00 L49.57,245.00 L49.85,245.00 L50.12,245.00 L50.39,245.00 L50.67,245.00 L50.94,245.00 L51.22,245.00 L51.49,245.00 L51.76,245.00 L52.04,245.00 L52.31,245.00 L52.59,245.00 L52.86,245.00 L53.13,245.00 L53.41,245.00 L53.68,245.00 L53.96,245.00 L54.23,245.00 L54.50,245.00 L54.78,245.00 L55.05,245.00 L55.32,245.00 L55.60,245.00 L55.87,245.00 L56.15,245.00 L56.42,245.00 L56.69,245.00 L56.97,245.00 L57.24,245.00 L57.52,245.00 L57.79,245.00 L58.06,245.00 L58.34,245.00 L58.61,245.00 L58.89,245.00 L59.16,245.00 L59.43,245.00 L59.71,245.00 L59.98,245.00 L60.25,245.00 L60.53,245.00 L60.80,245.00 L61.08,245.00 L61.35,245.00 L61.62,245.00 L61.90,245.00 L62.17,245.00 L62.45,245.00 L62.72,245.00 L62.99,245.00 L63.27,245.00 L63.54,245.00 L63.82,245.00 L64.09,245.00 L64.36,245.00 L64.64,245.00 L64.91,245.00 L65.18,245.00 L65.46,245.00 L65.73,245.00 L66.01,245.00 L66.28,245.00 L66.55,245.00 L66.83,245.00 L67.10,245.00 L67.38,245.00 L67.65,245.00 L67.92,245.00 L68.20,245.00 L68.47,245.00 L68.75,245.00 L69.02,245.00 L69.29,245.00 L69.57,245.00 L69.84,245.00 L70.11,245.00 L70.39,245.00 L70.66,245.00 L70.94,245.00 L71.21,245.00 L71.48,245.00 L71.76,245.00 L72.03,245.00 L72.31,245.00 L72.58,245.00 L72.85,245.00 L73.13,245.00 L73.40,245.00 L73.68,245.00 L73.95,245.00 L74.22,245.00 L74.50,245.00 L74.77,245.00 L75.04,245.00 L75.32,245.00 L75.59,245.00 L75.87,245.00 L76.14,245.00 L76.41,245.00 L76.69,245.00 L76.96,245.00 L77.24,245.00 L77.51,245.00 L77.78,245.00 L78.06,245.00 L78.33,245.00 L78.61,245.00 L78.88,245.00 L79.15,245.00 L79.43,245.00 L79.70,245.00 L79.97,245.00 L80.25,245.00 L80.52,245.00 L80.80,245.00 L81.07,245.00 L81.34,245.00 L81.62,245.00 L81.89,245.00 L82.17,245.00 L82.44,245.00 L82.71,245.00 L82.99,245.00 L83.26,245.00 L83.54,245.00 L83.81,245.00 L84.08,245.00 L84.36,245.00 L84.63,245.00 L84.90,245.00 L85.18,245.00 L85.45,245.00 L85.73,245.00 L86.00,245.00 L86.27,245.00 L86.55,245.00 L86.82,245.00 L87.10,245.00 L87.37,245.00 L87.64,245.00 L87.92,245.00 L88.19,245.00 L88.46,245.00 L88.74,245.00 L89.01,245.00 L89.29,245.00 L89.56,245.00 L89.83,245.00 L90.11,245.00 L90.38,245.00 L90.66,245.00 L90.93,245.00 L91.20,245.00 L91.48,245.00 L91.75,245.00 L92.03,245.00 L92.30,245.00 L92.57,245.00 L92.85,245.00 L93.12,245.00 L93.39,245.00 L93.67,245.00 L93.94,245.00 L94.22,245.00 L94.49,245.00 L94.76,245.00 L95.04,245.00 L95.31,245.00 L95.59,245.00 L95.86,245.00 L96.13,245.00 L96.41,245.00 L96.68,245.00 L96.96,245.00 L97.23,245.00 L97.50,245.00 L97.78,245.00 L98.05,245.00 L98.32,245.00 L98.60,245.00 L98.87,245.00 L99.15,245.00 L99.42,245.00 L99.69,245.00 L99.97,245.00 L100.24,245.00 L100.52,245.00 L100.79,245.00 L101.06,245.00 L101.34,245.00 L101.61,245.00 L101.89,245.00 L102.16,245.00 L102.43,245.00 L102.71,245.00 L102.98,245.00 L103.25,245.00 L103.53,245.00 L103.80,245.00 L104.08,245.00 L104.35,245.00 L104.62,245.00 L104.90,245.00 L105.17,245.00 L105.45,245.00 L105.72,245.00 L105.99,245.00 L106.27,245.00 L106.54,245.00 L106.82,245.00 L107.09,245.00 L107.36,245.00 L107.64,245.00 L107.91,245.00 L108.18,245.00 L108.46,245.00 L108.73,245.00 L109.01,245.00 L109.28,245.00 L109.55,245.00 L109.83,245.00 L110.10,245.00 L110.38,245.00 L110.65,245.00 L110.92,245.00 L111.20,245.00 L111.47,245.00 L111.75,245.00 L112.02,245.00 L112.29,245.00 L112.57,245.00 L112.84,245.00 L113.11,245.00 L113.39,245.00 L113.66,245.00 L113.94,245.00 L114.21,245.00 L114.48,245.00 L114.76,245.00 L115.03,245.00 L115.31,245.00 L115.58,245.00 L115.85,245.00 L116.13,245.00 L116.40,245.00 L116.68,245.00 L116.95,245.00 L117.22,245.00 L117.50,245.00 L117.77,245.00 L118.04,245.00 L118.32,245.00 L118.59,245.00 L118.87,245.00 L119.14,245.00 L119.41,245.00 L119.69,245.00 L119.96,245.00 L120.24,245.00 L120.51,245.00 L120.78,245.00 L121.06,245.00 L121.33,245.00 L121.61,245.00 L121.88,245.00 L122.15,245.00 L122.43,245.00 L122.70,245.00 L122.97,245.00 L123.25,245.00 L123.52,245.00 L123.80,245.00 L124.07,245.00 L124.34,245.00 L124.62,245.00 L124.89,245.00 L125.17,245.00 L125.44,245.00 L125.71,245.00 L125.99,245.00 L126.26,245.00 L126.54,245.00 L126.81,245.00 L127.08,245.00 L127.36,245.00 L127.63,245.00 L127.90,245.00 L128.18,245.00 L128.45,245.00 L128.73,245.00 L129.00,245.00 L129.27,245.00 L129.55,245.00 L129.82,245.00 L130.10,245.00 L130.37,245.00 L130.64,245.00 L130.92,245.00 L131.19,245.00 L131.46,245.00 L131.74,245.00 L132.01,245.00 L132.29,245.00 L132.56,245.00 L132.83,245.00 L133.11,245.00 L133.38,245.00 L133.66,245.00 L133.93,245.00 L134.20,245.00 L134.48,245.00 L134.75,245.00 L135.03,245.00 L135.30,245.00 L135.57,245.00 L135.85,245.00 L136.12,245.00 L136.39,245.00 L136.67,245.00 L136.94,245.00 L137.22,245.00 L137.49,245.00 L137.76,245.00 L138.04,245.00 L138.31,245.00 L138.59,245.00 L138.86,245.00 L139.13,245.00 L139.41,245.00 L139.68,245.00 L139.96,245.00 L140.23,245.00 L140.50,245.00 L140.78,245.00 L141.05,245.00 L141.32,245.00 L141.60,245.00 L141.87,245.00 L142.15,245.00 L142.42,245.00 L142.69,245.00 L142.97,245.00 L143.24,245.00 L143.52,245.00 L143.79,245.00 L144.06,245.00 L144.34,245.00 L144.61,245.00 L144.89,245.00 L145.16,245.00 L145.43,245.00 L145.71,245.00 L145.98,245.00 L146.25,245.00 L146.53,245.00 L146.80,245.00 L147.08,245.00 L147.35,245.00 L147.62,245.00 L147.90,245.00 L148.17,245.00 L148.45,245.00 L148.72,245.00 L148.99,245.00 L149.27,245.00 L149.54,245.00 L149.82,245.00 L150.09,245.00 L150.36,245.00 L150.64,245.00 L150.91,245.00 L151.18,245.00 L151.46,245.00 L151.73,245.00 L152.01,245.00 L152.28,245.00 L152.55,245.00 L152.83,245.00 L153.10,245.00 L153.38,245.00 L153.65,245.00 L153.92,245.00 L154.20,245.00 L154.47,245.00 L154.75,245.00 L155.02,245.00 L155.29,245.00 L155.57,245.00 L155.84,245.00 L156.11,245.00 L156.39,245.00 L156.66,245.00 L156.94,245.00 L157.21,245.00 L157.48,245.00 L157.76,245.00 L158.03,245.00 L158.31,245.00 L158.58,245.00 L158.85,245.00 L159.13,245.00 L159.40,245.00 L159.68,245.00 L159.95,245.00 L160.22,245.00 L160.50,245.00 L160.77,245.00 L161.04,245.00 L161.32,245.00 L161.59,245.00 L161.87,245.00 L162.14,245.00 L162.41,245.00 L162.69,245.00 L162.96,245.00 L163.24,245.00 L163.51,245.00 L163.78,245.00 L164.06,245.00 L164.33,245.00 L164.61,245.00 L164.88,245.00 L165.15,245.00 L165.43,245.00 L165.70,245.00 L165.97,245.00 L166.25,245.00 L166.52,245.00 L166.80,245.00 L167.07,245.00 L167.34,245.00 L167.62,245.00 L167.89,245.00 L168.17,245.00 L168.44,245.00 L168.71,245.00 L168.99,245.00 L169.26,245.00 L169.54,245.00 L169.81,245.00 L170.08,245.00 L170.36,245.00 L170.63,245.00 L170.90,245.00 L171.18,245.00 L171.45,245.00 L171.73,245.00 L172.00,245.00 L172.27,245.00 L172.55,245.00 L172.82,245.00 L173.10,245.00 L173.37,245.00 L173.64,245.00 L173.92,245.00 L174.19,245.00 L174.46,245.00 L174.74,245.00 L175.01,245.00 L175.29,245.00 L175.56,245.00 L175.83,245.00 L176.11,245.00 L176.38,245.00 L176.66,245.00 L176.93,245.00 L177.20,245.00 L177.48,245.00 L177.75,245.00 L178.03,245.00 L178.30,245.00 L178.57,245.00 L178.85,245.00 L179.12,245.00 L179.39,245.00 L179.67,245.00 L179.94,245.00 L180.22,245.00 L180.49,245.00 L180.76,245.00 L181.04,245.00 L181.31,245.00 L181.59,245.00 L181.86,245.00 L182.13,245.00 L182.41,245.00 L182.68,245.00 L182.96,245.00 L183.23,245.00 L183.50,245.00 L183.78,245.00 L184.05,245.00 L184.32,245.00 L184.60,245.00 L184.87,245.00 L185.15,245.00 L185.42,245.00 L185.69,245.00 L185.97,245.00 L186.24,245.00 L186.52,245.00 L186.79,245.00 L187.06,245.00 L187.34,245.00 L187.61,245.00 L187.89,245.00 L188.16,245.00 L188.43,245.00 L188.71,245.00 L188.98,245.00 L189.25,245.00 L189.53,245.00 L189.80,245.00 L190.08,245.00 L190.35,245.00 L190.62,245.00 L190.90,245.00 L191.17,245.00 L191.45,245.00 L191.72,245.00 L191.99,245.00 L192.27,245.00 L192.54,245.00 L192.82,245.00 L193.09,245.00 L193.36,245.00 L193.64,245.00 L193.91,245.00 L194.18,245.00 L194.46,245.00 L194.73,245.00 L195.01,245.00 L195.28,245.00 L195.55,245.00 L195.83,245.00 L196.10,245.00 L196.38,245.00 L196.65,245.00 L196.92,245.00 L197.20,245.00 L197.47,245.00 L197.75,245.00 L198.02,245.00 L198.29,245.00 L198.57,245.00 L198.84,245.00 L199.11,245.00 L199.39,245.00 L199.66,245.00 L199.94,245.00 L200.21,245.00 L200.48,245.00 L200.76,245.00 L201.03,245.00 L201.31,245.00 L201.58,245.00 L201.85,245.00 L202.13,245.00 L202.40,245.00 L202.68,245.00 L202.95,245.00 L203.22,245.00 L203.50,245.00 L203.77,245.00 L204.04,245.00 L204.32,245.00 L204.59,245.00 L204.87,245.00 L205.14,245.00 L205.41,245.00 L205.69,245.00 L205.96,245.00 L206.24,245.00 L206.51,245.00 L206.78,245.00 L207.06,245.00 L207.33,245.00 L207.61,245.00 L207.88,245.00 L208.15,245.00 L208.43,245.00 L208.70,245.00 L208.97,245.00 L209.25,245.00 L209.52,245.00 L209.80,245.00 L210.07,245.00 L210.34,245.00 L210.62,245.00 L210.89,245.00 L211.17,245.00 L211.44,245.00 L211.71,245.00 L211.99,245.00 L212.26,245.00 L212.54,245.00 L212.81,245.00 L213.08,245.00 L213.36,245.00 L213.63,245.00 L213.90,245.00 L214.18,245.00 L214.45,245.00 L214.73,245.00 L215.00,245.00 L215.27,245.00 L215.55,245.00 L215.82,245.00 L216.10,245.00 L216.37,245.00 L216.64,245.00 L216.92,245.00 L217.19,245.00 L217.46,245.00 L217.74,245.00 L218.01,245.00 L218.29,245.00 L218.56,245.00 L218.83,245.00 L219.11,245.00 L219.38,245.00 L219.66,245.00 L219.93,245.00 L220.20,245.00 L220.48,245.00 L220.75,245.00 L221.03,245.00 L221.30,245.00 L221.57,245.00 L221.85,245.00 L222.12,245.00 L222.39,245.00 L222.67,245.00 L222.94,245.00 L223.22,245.00 L223.49,245.00 L223.76,245.00 L224.04,245.00 L224.31,245.00 L224.59,245.00 L224.86,245.00 L225.13,245.00 L225.41,245.00 L225.68,245.00 L225.96,245.00 L226.23,245.00 L226.50,245.00 L226.78,245.00 L227.05,245.00 L227.32,245.00 L227.60,245.00 L227.87,245.00 L228.15,245.00 L228.42,245.00 L228.69,245.00 L228.97,245.00 L229.24,245.00 L229.52,245.00 L229.79,245.00 L230.06,245.00 L230.34,245.00 L230.61,245.00 L230.89,245.00 L231.16,245.00 L231.43,245.00 L231.71,245.00 L231.98,245.00 L232.25,245.00 L232.53,245.00 L232.80,245.00 L233.08,245.00 L233.35,245.00 L233.62,245.00 L233.90,245.00 L234.17,245.00 L234.45,245.00 L234.72,245.00 L234.99,245.00 L235.27,245.00 L235.54,245.00 L235.82,245.00 L236.09,245.00 L236.36,245.00 L236.64,245.00 L236.91,245.00 L237.18,245.00 L237.46,245.00 L237.73,245.00 L238.01,245.00 L238.28,245.00 L238.55,245.00 L238.83,245.00 L239.10,245.00 L239.38,245.00 L239.65,245.00 L239.92,245.00 L240.20,245.00 L240.47,245.00 L240.75,245.00 L241.02,245.00 L241.29,245.00 L241.57,245.00 L241.84,245.00 L242.11,245.00 L242.39,245.00 L242.66,245.00 L242.94,245.00 L243.21,245.00 L243.48,245.00 L243.76,245.00 L244.03,245.00 L244.31,245.00 L244.58,245.00 L244.85,245.00 L245.13,245.00 L245.40,245.00 L245.68,245.00 L245.95,245.00 L246.22,245.00 L246.50,245.00 L246.77,245.00 L247.04,245.00 L247.32,245.00 L247.59,245.00 L247.87,245.00 L248.14,245.00 L248.41,245.00 L248.69,245.00 L248.96,245.00 L249.24,245.00 L249.51,245.00 L249.78,245.00 L250.06,245.00 L250.33,245.00 L250.61,245.00 L250.88,245.00 L251.15,245.00 L251.43,245.00 L251.70,245.00 L251.97,245.00 L252.25,245.00 L252.52,245.00 L252.80,245.00 L253.07,245.00 L253.34,245.00 L253.62,245.00 L253.89,245.00 L254.17,245.00 L254.44,245.00 L254.71,245.00 L254.99,245.00 L255.26,245.00 L255.54,245.00 L255.81,245.00 L256.08,245.00 L256.36,245.00 L256.63,245.00 L256.90,245.00 L257.18,245.00 L257.45,245.00 L257.73,245.00 L258.00,245.00 L258.27,245.00 L258.55,245.00 L258.82,245.00 L259.10,245.00 L259.37,245.00 L259.64,245.00 L259.92,245.00 L260.19,245.00 L260.46,245.00 L260.74,245.00 L261.01,245.00 L261.29,245.00 L261.56,245.00 L261.83,245.00 L262.11,245.00 L262.38,245.00 L262.66,245.00 L262.93,245.00 L263.20,245.00 L263.48,245.00 L263.75,245.00 L264.03,245.00 L264.30,245.00 L264.57,245.00 L264.85,245.00 L265.12,245.00 L265.39,245.00 L265.67,245.00 L265.94,245.00 L266.22,245.00 L266.49,245.00 L266.76,245.00 L267.04,245.00 L267.31,245.00 L267.59,245.00 L267.86,245.00 L268.13,245.00 L268.41,245.00 L268.68,245.00 L268.96,245.00 L269.23,245.00 L269.50,245.00 L269.78,245.00 L270.05,245.00 L270.32,245.00 L270.60,245.00 L270.87,245.00 L271.15,245.00 L271.42,245.00 L271.69,245.00 L271.97,245.00 L272.24,245.00 L272.52,245.00 L272.79,245.00 L273.06,245.00 L273.34,245.00 L273.61,245.00 L273.89,245.00 L274.16,245.00 L274.43,245.00 L274.71,245.00 L274.98,245.00 L275.25,245.00 L275.53,245.00 L275.80,245.00 L276.08,245.00 L276.35,245.00 L276.62,245.00 L276.90,245.00 L277.17,245.00 L277.45,245.00 L277.72,245.00 L277.99,245.00 L278.27,245.00 L278.54,245.00 L278.82,245.00 L279.09,245.00 L279.36,245.00 L279.64,245.00 L279.91,245.00 L280.18,245.00 L280.46,245.00 L280.73,245.00 L281.01,245.00 L281.28,245.00 L281.55,245.00 L281.83,245.00 L282.10,245.00 L282.38,245.00 L282.65,245.00 L282.92,245.00 L283.20,245.00 L283.47,245.00 L283.75,245.00 L284.02,245.00 L284.29,245.00 L284.57,245.00 L284.84,245.00 L285.11,245.00 L285.39,245.00 L285.66,245.00 L285.94,245.00 L286.21,245.00 L286.48,245.00 L286.76,245.00 L287.03,245.00 L287.31,245.00 L287.58,245.00 L287.85,245.00 L288.13,245.00 L288.40,245.00 L288.68,245.00 L288.95,245.00 L289.22,245.00 L289.50,245.00 L289.77,245.00 L290.04,245.00 L290.32,245.00 L290.59,245.00 L290.87,245.00 L291.14,245.00 L291.41,245.00 L291.69,245.00 L291.96,245.00 L292.24,245.00 L292.51,245.00 L292.78,245.00 L293.06,245.00 L293.33,245.00 L293.61,245.00 L293.88,245.00 L294.15,245.00 L294.43,245.00 L294.70,245.00 L294.97,245.00 L295.25,245.00 L295.52,245.00 L295.80,245.00 L296.07,245.00 L296.34,245.00 L296.62,245.00 L296.89,245.00 L297.17,245.00 L297.44,245.00 L297.71,245.00 L297.99,245.00 L298.26,245.00 L298.54,245.00 L298.81,245.00 L299.08,245.00 L299.36,245.00 L299.63,245.00 L299.90,245.00 L300.18,245.00 L300.45,245.00 L300.73,245.00 L301.00,245.00" style="stroke-width: 2; stroke: rgb(74, 144, 226); stroke-opacity: 1;"/></g></g><g class="test-xtl" style="font-family: &quot;Open Sans&quot;, verdana, arial, sans-serif;"><text text-anchor="middle" font-size="11" dominant-baseline="hanging" stroke="none" fill="rgb(50,50,50)" fill-opacity="1" x="-0.3350000000000031" y="252">-6</text><text text-anchor="middle" font-size="11" dominant-baseline="hanging" stroke="none" fill="rgb(50,50,50)" fill-opacity="1" x="49.364999999999995" y="252">-5</text><text text-anchor="middle" font-size="11" dominant-baseline="hanging" stroke="none" fill="rgb(50,50,50)" fill-opacity="1" x="99.065" y="252">-4</text><text text-anchor="middle" font-size="11" dominant-baseline="hanging" stroke="none" fill="rgb(50,50,50)" fill-opacity="1" x="148.76500000000001" y="252">-3</text><text text-anchor="middle" font-size="11" dominant-baseline="hanging" stroke="none" fill="rgb(50,50,50)" fill-opacity="1" x="198.46500000000003" y="252">-2</text><text text-anchor="middle" font-size="11" dominant-baseline="hanging" stroke="none" fill="rgb(50,50,50)" fill-opacity="1" x="248.16500000000002" y="252">-1</text><text text-anchor="middle" font-size="11" dominant-baseline="hanging" stroke="none" fill="rgb(50,50,50)" fill-opacity="1" x="350.7" y="252">1</text><text text-anchor="middle" font-size="11" dominant-baseline="hanging" stroke="none" fill="rgb(50,50,50)" fill-opacity="1" x="400.40000000000003" y="252">2</text><text text-anchor="middle" font-size="11" dominant-baseline="hanging" stroke="none" fill="rgb(50,50,50)" fill-opacity="1" x="450.1000000000001" y="252">3</text><text text-anchor="middle" font-size="11" dominant-baseline="hanging" stroke="none" fill="rgb(50,50,50)" fill-opacity="1" x="499.8" y="252">4</text><text text-anchor="middle" font-size="11" dominant-baseline="hanging" stroke="none" fill="rgb(50,50,50)" fill-opacity="1" x="549.5" y="252">5</text><text text-anchor="middle" font-size="11" dominant-baseline="hanging" stroke="none" fill="rgb(50,50,50)" fill-opacity="1" x="599.2" y="252">6</text><text text-anchor="middle" font-size="11" dominant-baseline="hanging" stroke="none" fill="rgb(50,50,50)" fill-opacity="1" x="293.00000000000006" y="250">0</text></g><g class="test-ytl" style="font-family: &quot;Open Sans&quot;, verdana, arial, sans-serif;"><text text-anchor="end" dominant-baseline="middle" font-size="11" stroke="none" fill="rgb(50,50,50)" fill-opacity="1" x="293" y="138.95">0.5</text><text text-anchor="end" dominant-baseline="middle" font-size="11" stroke="none" fill="rgb(50,50,50)" fill-opacity="1" x="293" y="32.900000000000006">1</text></g><rect class="real" x="1" y="1" width="618" height="268" style="fill: transparent; stroke: none;"/></g></g></g><g/></g><g/><g/><g/></svg>
        <svg xmlns="http://www.w3.org/2000/svg" xmlns:xlink="http://www.w3.org/1999/xlink" width="660" height="310" style="width:660px;height:310px;font-family:Asana-Math, Asana;background:transparent;"></svg>
</svg>
