<svg xmlns="http://www.w3.org/2000/svg" xmlns:xlink="http://www.w3.org/1999/xlink" x="0" y="0" width="662" height="312" style="
        width:662px;
        height:312px;
        background: transparent;
        fill: none;
">
        
        
        <svg xmlns="http://www.w3.org/2000/svg" class="role-diagram-draw-area"><g class="shapes-region" style="stroke: black; fill: none;"><g class="composite-shape" data-amt="diagram/shapes/plot" transform="matrix(1,0,0,1,20,10)"><g><g/><g><g class="test-xti" style="font-family: Asana-Math, Asana;"><line x1="0" y1="245" x2="616" y2="245" fill="none" stroke="rgb(50,50,50)" stroke-opacity="1" stroke-width="1"/><line x1="2.7999999999999967" y1="241" x2="2.7999999999999967" y2="249" fill="none" stroke="rgb(50,50,50)" stroke-opacity="1" stroke-width="1"/><line x1="52.49999999999999" y1="241" x2="52.49999999999999" y2="249" fill="none" stroke="rgb(50,50,50)" stroke-opacity="1" stroke-width="1"/><line x1="102.2" y1="241" x2="102.2" y2="249" fill="none" stroke="rgb(50,50,50)" stroke-opacity="1" stroke-width="1"/><line x1="151.9" y1="241" x2="151.9" y2="249" fill="none" stroke="rgb(50,50,50)" stroke-opacity="1" stroke-width="1"/><line x1="201.60000000000002" y1="241" x2="201.60000000000002" y2="249" fill="none" stroke="rgb(50,50,50)" stroke-opacity="1" stroke-width="1"/><line x1="251.3" y1="241" x2="251.3" y2="249" fill="none" stroke="rgb(50,50,50)" stroke-opacity="1" stroke-width="1"/><line x1="350.7" y1="241" x2="350.7" y2="249" fill="none" stroke="rgb(50,50,50)" stroke-opacity="1" stroke-width="1"/><line x1="400.40000000000003" y1="241" x2="400.40000000000003" y2="249" fill="none" stroke="rgb(50,50,50)" stroke-opacity="1" stroke-width="1"/><line x1="450.1000000000001" y1="241" x2="450.1000000000001" y2="249" fill="none" stroke="rgb(50,50,50)" stroke-opacity="1" stroke-width="1"/><line x1="499.8" y1="241" x2="499.8" y2="249" fill="none" stroke="rgb(50,50,50)" stroke-opacity="1" stroke-width="1"/><line x1="549.5" y1="241" x2="549.5" y2="249" fill="none" stroke="rgb(50,50,50)" stroke-opacity="1" stroke-width="1"/><line x1="599.2" y1="241" x2="599.2" y2="249" fill="none" stroke="rgb(50,50,50)" stroke-opacity="1" stroke-width="1"/><path d="M611,241.4 L619,245 L611,248.6 Z" stroke="none" stroke-width="1" fill="rgb(50,50,50)" fill-opacity="1"/></g><g class="test-yti" style="font-family: Asana-Math, Asana;"><line x1="301" y1="4" x2="301" y2="270" fill="none" stroke="rgb(50,50,50)" stroke-opacity="1" stroke-width="1"/><line x1="297" y1="138.95" x2="305" y2="138.95" fill="none" stroke="rgb(50,50,50)" stroke-opacity="1" stroke-width="1"/><line x1="297" y1="32.900000000000006" x2="305" y2="32.900000000000006" fill="none" stroke="rgb(50,50,50)" stroke-opacity="1" stroke-width="1"/><path d="M297.4,9 L301,1 L304.6,9 Z" stroke="none" stroke-width="1" fill="rgb(50,50,50)" fill-opacity="1"/></g><g class="test-plot-expression"><defs><clipPath id="cprfchm2jk4"><rect x="1" y="1" width="618" height="268"/></clipPath></defs><g clip-path="url(#cprfchm2jk4)"><path d=" M0.00,244.50 L0.56,244.50 L1.13,244.49 L1.69,244.49 L2.26,244.48 L2.82,244.48 L3.38,244.47 L3.95,244.46 L4.51,244.46 L5.08,244.45 L5.64,244.44 L6.21,244.44 L6.77,244.43 L7.33,244.43 L7.90,244.42 L8.46,244.41 L9.03,244.41 L9.59,244.40 L10.15,244.39 L10.72,244.39 L11.28,244.38 L11.85,244.37 L12.41,244.36 L12.98,244.36 L13.54,244.35 L14.10,244.34 L14.67,244.33 L15.23,244.33 L15.80,244.32 L16.36,244.31 L16.92,244.30 L17.49,244.30 L18.05,244.29 L18.62,244.28 L19.18,244.27 L19.75,244.26 L20.31,244.25 L20.87,244.25 L21.44,244.24 L22.00,244.23 L22.57,244.22 L23.13,244.21 L23.69,244.20 L24.26,244.19 L24.82,244.18 L25.39,244.18 L25.95,244.17 L26.52,244.16 L27.08,244.15 L27.64,244.14 L28.21,244.13 L28.77,244.12 L29.34,244.11 L29.90,244.10 L30.46,244.09 L31.03,244.08 L31.59,244.07 L32.16,244.06 L32.72,244.04 L33.28,244.03 L33.85,244.02 L34.41,244.01 L34.98,244.00 L35.54,243.99 L36.11,243.98 L36.67,243.97 L37.23,243.95 L37.80,243.94 L38.36,243.93 L38.93,243.92 L39.49,243.91 L40.05,243.89 L40.62,243.88 L41.18,243.87 L41.75,243.86 L42.31,243.84 L42.88,243.83 L43.44,243.82 L44.00,243.80 L44.57,243.79 L45.13,243.77 L45.70,243.76 L46.26,243.75 L46.82,243.73 L47.39,243.72 L47.95,243.70 L48.52,243.69 L49.08,243.67 L49.65,243.66 L50.21,243.64 L50.77,243.63 L51.34,243.61 L51.90,243.60 L52.47,243.58 L53.03,243.57 L53.59,243.55 L54.16,243.53 L54.72,243.52 L55.29,243.50 L55.85,243.48 L56.41,243.46 L56.98,243.45 L57.54,243.43 L58.11,243.41 L58.67,243.39 L59.24,243.38 L59.80,243.36 L60.36,243.34 L60.93,243.32 L61.49,243.30 L62.06,243.28 L62.62,243.26 L63.18,243.24 L63.75,243.22 L64.31,243.20 L64.88,243.18 L65.44,243.16 L66.01,243.14 L66.57,243.12 L67.13,243.10 L67.70,243.08 L68.26,243.06 L68.83,243.03 L69.39,243.01 L69.95,242.99 L70.52,242.97 L71.08,242.94 L71.65,242.92 L72.21,242.90 L72.78,242.87 L73.34,242.85 L73.90,242.82 L74.47,242.80 L75.03,242.77 L75.60,242.75 L76.16,242.72 L76.72,242.70 L77.29,242.67 L77.85,242.65 L78.42,242.62 L78.98,242.59 L79.55,242.57 L80.11,242.54 L80.67,242.51 L81.24,242.48 L81.80,242.45 L82.37,242.43 L82.93,242.40 L83.49,242.37 L84.06,242.34 L84.62,242.31 L85.19,242.28 L85.75,242.25 L86.31,242.22 L86.88,242.18 L87.44,242.15 L88.01,242.12 L88.57,242.09 L89.14,242.05 L89.70,242.02 L90.26,241.99 L90.83,241.95 L91.39,241.92 L91.96,241.89 L92.52,241.85 L93.08,241.81 L93.65,241.78 L94.21,241.74 L94.78,241.71 L95.34,241.67 L95.91,241.63 L96.47,241.59 L97.03,241.56 L97.60,241.52 L98.16,241.48 L98.73,241.44 L99.29,241.40 L99.85,241.36 L100.42,241.32 L100.98,241.28 L101.55,241.23 L102.11,241.19 L102.68,241.15 L103.24,241.11 L103.80,241.06 L104.37,241.02 L104.93,240.97 L105.50,240.93 L106.06,240.88 L106.62,240.84 L107.19,240.79 L107.75,240.74 L108.32,240.70 L108.88,240.65 L109.44,240.60 L110.01,240.55 L110.57,240.50 L111.14,240.45 L111.70,240.40 L112.27,240.35 L112.83,240.30 L113.39,240.24 L113.96,240.19 L114.52,240.14 L115.09,240.08 L115.65,240.03 L116.21,239.97 L116.78,239.92 L117.34,239.86 L117.91,239.80 L118.47,239.74 L119.04,239.69 L119.60,239.63 L120.16,239.57 L120.73,239.51 L121.29,239.45 L121.86,239.38 L122.42,239.32 L122.98,239.26 L123.55,239.19 L124.11,239.13 L124.68,239.06 L125.24,239.00 L125.81,238.93 L126.37,238.86 L126.93,238.80 L127.50,238.73 L128.06,238.66 L128.63,238.59 L129.19,238.52 L129.75,238.45 L130.32,238.37 L130.88,238.30 L131.45,238.23 L132.01,238.15 L132.58,238.08 L133.14,238.00 L133.70,237.92 L134.27,237.84 L134.83,237.77 L135.40,237.69 L135.96,237.60 L136.52,237.52 L137.09,237.44 L137.65,237.36 L138.22,237.27 L138.78,237.19 L139.34,237.10 L139.91,237.02 L140.47,236.93 L141.04,236.84 L141.60,236.75 L142.17,236.66 L142.73,236.57 L143.29,236.48 L143.86,236.38 L144.42,236.29 L144.99,236.19 L145.55,236.10 L146.11,236.00 L146.68,235.90 L147.24,235.80 L147.81,235.70 L148.37,235.60 L148.94,235.50 L149.50,235.39 L150.06,235.29 L150.63,235.18 L151.19,235.08 L151.76,234.97 L152.32,234.86 L152.88,234.75 L153.45,234.64 L154.01,234.53 L154.58,234.41 L155.14,234.30 L155.71,234.18 L156.27,234.06 L156.83,233.95 L157.40,233.83 L157.96,233.71 L158.53,233.58 L159.09,233.46 L159.65,233.34 L160.22,233.21 L160.78,233.08 L161.35,232.95 L161.91,232.83 L162.47,232.69 L163.04,232.56 L163.60,232.43 L164.17,232.29 L164.73,232.16 L165.30,232.02 L165.86,231.88 L166.42,231.74 L166.99,231.60 L167.55,231.46 L168.12,231.31 L168.68,231.16 L169.24,231.02 L169.81,230.87 L170.37,230.72 L170.94,230.57 L171.50,230.41 L172.07,230.26 L172.63,230.10 L173.19,229.94 L173.76,229.78 L174.32,229.62 L174.89,229.46 L175.45,229.29 L176.01,229.13 L176.58,228.96 L177.14,228.79 L177.71,228.62 L178.27,228.45 L178.84,228.28 L179.40,228.10 L179.96,227.92 L180.53,227.74 L181.09,227.56 L181.66,227.38 L182.22,227.20 L182.78,227.01 L183.35,226.82 L183.91,226.63 L184.48,226.44 L185.04,226.25 L185.61,226.05 L186.17,225.86 L186.73,225.66 L187.30,225.46 L187.86,225.25 L188.43,225.05 L188.99,224.84 L189.55,224.64 L190.12,224.43 L190.68,224.21 L191.25,224.00 L191.81,223.79 L192.37,223.57 L192.94,223.35 L193.50,223.13 L194.07,222.90 L194.63,222.68 L195.20,222.45 L195.76,222.22 L196.32,221.99 L196.89,221.75 L197.45,221.52 L198.02,221.28 L198.58,221.04 L199.14,220.80 L199.71,220.55 L200.27,220.31 L200.84,220.06 L201.40,219.81 L201.97,219.55 L202.53,219.30 L203.09,219.04 L203.66,218.78 L204.22,218.52 L204.79,218.25 L205.35,217.99 L205.91,217.72 L206.48,217.45 L207.04,217.17 L207.61,216.90 L208.17,216.62 L208.74,216.34 L209.30,216.06 L209.86,215.77 L210.43,215.49 L210.99,215.20 L211.56,214.91 L212.12,214.61 L212.68,214.31 L213.25,214.01 L213.81,213.71 L214.38,213.41 L214.94,213.10 L215.51,212.79 L216.07,212.48 L216.63,212.17 L217.20,211.85 L217.76,211.53 L218.33,211.21 L218.89,210.89 L219.45,210.56 L220.02,210.23 L220.58,209.90 L221.15,209.57 L221.71,209.23 L222.27,208.89 L222.84,208.55 L223.40,208.21 L223.97,207.86 L224.53,207.51 L225.10,207.16 L225.66,206.81 L226.22,206.45 L226.79,206.09 L227.35,205.73 L227.92,205.37 L228.48,205.00 L229.04,204.63 L229.61,204.26 L230.17,203.88 L230.74,203.50 L231.30,203.12 L231.87,202.74 L232.43,202.36 L232.99,201.97 L233.56,201.58 L234.12,201.18 L234.69,200.79 L235.25,200.39 L235.81,199.99 L236.38,199.58 L236.94,199.18 L237.51,198.77 L238.07,198.36 L238.64,197.94 L239.20,197.53 L239.76,197.11 L240.33,196.68 L240.89,196.26 L241.46,195.83 L242.02,195.40 L242.58,194.97 L243.15,194.53 L243.71,194.10 L244.28,193.66 L244.84,193.21 L245.40,192.77 L245.97,192.32 L246.53,191.87 L247.10,191.41 L247.66,190.96 L248.23,190.50 L248.79,190.04 L249.35,189.58 L249.92,189.11 L250.48,188.64 L251.05,188.17 L251.61,187.70 L252.17,187.22 L252.74,186.74 L253.30,186.26 L253.87,185.78 L254.43,185.29 L255.00,184.80 L255.56,184.31 L256.12,183.82 L256.69,183.33 L257.25,182.83 L257.82,182.33 L258.38,181.83 L258.94,181.32 L259.51,180.81 L260.07,180.30 L260.64,179.79 L261.20,179.28 L261.77,178.76 L262.33,178.24 L262.89,177.72 L263.46,177.20 L264.02,176.68 L264.59,176.15 L265.15,175.62 L265.71,175.09 L266.28,174.56 L266.84,174.02 L267.41,173.49 L267.97,172.95 L268.54,172.41 L269.10,171.86 L269.66,171.32 L270.23,170.77 L270.79,170.22 L271.36,169.67 L271.92,169.12 L272.48,168.57 L273.05,168.01 L273.61,167.45 L274.18,166.89 L274.74,166.33 L275.30,165.77 L275.87,165.21 L276.43,164.64 L277.00,164.07 L277.56,163.50 L278.13,162.93 L278.69,162.36 L279.25,161.79 L279.82,161.21 L280.38,160.64 L280.95,160.06 L281.51,159.48 L282.07,158.90 L282.64,158.32 L283.20,157.74 L283.77,157.15 L284.33,156.57 L284.90,155.98 L285.46,155.40 L286.02,154.81 L286.59,154.22 L287.15,153.63 L287.72,153.04 L288.28,152.45 L288.84,151.85 L289.41,151.26 L289.97,150.67 L290.54,150.07 L291.10,149.48 L291.67,148.88 L292.23,148.28 L292.79,147.69 L293.36,147.09 L293.92,146.49 L294.49,145.89 L295.05,145.29 L295.61,144.69 L296.18,144.09 L296.74,143.49 L297.31,142.89 L297.87,142.29 L298.43,141.69 L299.00,141.08 L299.56,140.48 L300.13,139.88 L300.69,139.28 L301.26,138.68 L301.82,138.08 L302.38,137.47 L302.95,136.87 L303.51,136.27 L304.08,135.67 L304.64,135.07 L305.20,134.47 L305.77,133.87 L306.33,133.27 L306.90,132.67 L307.46,132.07 L308.03,131.47 L308.59,130.87 L309.15,130.27 L309.72,129.67 L310.28,129.08 L310.85,128.48 L311.41,127.88 L311.97,127.29 L312.54,126.69 L313.10,126.10 L313.67,125.51 L314.23,124.92 L314.80,124.33 L315.36,123.74 L315.92,123.15 L316.49,122.56 L317.05,121.97 L317.62,121.39 L318.18,120.80 L318.74,120.22 L319.31,119.63 L319.87,119.05 L320.44,118.47 L321.00,117.89 L321.57,117.32 L322.13,116.74 L322.69,116.17 L323.26,115.59 L323.82,115.02 L324.39,114.45 L324.95,113.88 L325.51,113.31 L326.08,112.75 L326.64,112.18 L327.21,111.62 L327.77,111.06 L328.33,110.50 L328.90,109.94 L329.46,109.39 L330.03,108.83 L330.59,108.28 L331.16,107.73 L331.72,107.18 L332.28,106.63 L332.85,106.09 L333.41,105.55 L333.98,105.00 L334.54,104.46 L335.10,103.93 L335.67,103.39 L336.23,102.86 L336.80,102.33 L337.36,101.80 L337.93,101.27 L338.49,100.75 L339.05,100.22 L339.62,99.70 L340.18,99.19 L340.75,98.67 L341.31,98.16 L341.87,97.64 L342.44,97.13 L343.00,96.63 L343.57,96.12 L344.13,95.62 L344.70,95.12 L345.26,94.62 L345.82,94.13 L346.39,93.63 L346.95,93.14 L347.52,92.65 L348.08,92.17 L348.64,91.68 L349.21,91.20 L349.77,90.72 L350.34,90.25 L350.90,89.77 L351.46,89.30 L352.03,88.83 L352.59,88.37 L353.16,87.90 L353.72,87.44 L354.29,86.98 L354.85,86.53 L355.41,86.07 L355.98,85.62 L356.54,85.18 L357.11,84.73 L357.67,84.29 L358.23,83.85 L358.80,83.41 L359.36,82.97 L359.93,82.54 L360.49,82.11 L361.06,81.68 L361.62,81.26 L362.18,80.83 L362.75,80.41 L363.31,80.00 L363.88,79.58 L364.44,79.17 L365.00,78.76 L365.57,78.35 L366.13,77.95 L366.70,77.55 L367.26,77.15 L367.83,76.75 L368.39,76.36 L368.95,75.97 L369.52,75.58 L370.08,75.20 L370.65,74.81 L371.21,74.43 L371.77,74.05 L372.34,73.68 L372.90,73.31 L373.47,72.94 L374.03,72.57 L374.60,72.20 L375.16,71.84 L375.72,71.48 L376.29,71.13 L376.85,70.77 L377.42,70.42 L377.98,70.07 L378.54,69.72 L379.11,69.38 L379.67,69.04 L380.24,68.70 L380.80,68.36 L381.36,68.03 L381.93,67.70 L382.49,67.37 L383.06,67.04 L383.62,66.72 L384.19,66.40 L384.75,66.08 L385.31,65.76 L385.88,65.45 L386.44,65.13 L387.01,64.83 L387.57,64.52 L388.13,64.21 L388.70,63.91 L389.26,63.61 L389.83,63.32 L390.39,63.02 L390.96,62.73 L391.52,62.44 L392.08,62.15 L392.65,61.87 L393.21,61.59 L393.78,61.30 L394.34,61.03 L394.90,60.75 L395.47,60.48 L396.03,60.21 L396.60,59.94 L397.16,59.67 L397.73,59.41 L398.29,59.14 L398.85,58.88 L399.42,58.63 L399.98,58.37 L400.55,58.12 L401.11,57.87 L401.67,57.62 L402.24,57.37 L402.80,57.13 L403.37,56.88 L403.93,56.64 L404.49,56.40 L405.06,56.17 L405.62,55.93 L406.19,55.70 L406.75,55.47 L407.32,55.24 L407.88,55.02 L408.44,54.79 L409.01,54.57 L409.57,54.35 L410.14,54.14 L410.70,53.92 L411.26,53.71 L411.83,53.49 L412.39,53.28 L412.96,53.07 L413.52,52.87 L414.09,52.66 L414.65,52.46 L415.21,52.26 L415.78,52.06 L416.34,51.87 L416.91,51.67 L417.47,51.48 L418.03,51.29 L418.60,51.10 L419.16,50.91 L419.73,50.72 L420.29,50.54 L420.86,50.35 L421.42,50.17 L421.98,49.99 L422.55,49.82 L423.11,49.64 L423.68,49.47 L424.24,49.29 L424.80,49.12 L425.37,48.95 L425.93,48.79 L426.50,48.62 L427.06,48.46 L427.63,48.29 L428.19,48.13 L428.75,47.97 L429.32,47.81 L429.88,47.66 L430.45,47.50 L431.01,47.35 L431.57,47.20 L432.14,47.05 L432.70,46.90 L433.27,46.75 L433.83,46.60 L434.39,46.46 L434.96,46.31 L435.52,46.17 L436.09,46.03 L436.65,45.89 L437.22,45.76 L437.78,45.62 L438.34,45.48 L438.91,45.35 L439.47,45.22 L440.04,45.09 L440.60,44.96 L441.16,44.83 L441.73,44.70 L442.29,44.58 L442.86,44.45 L443.42,44.33 L443.99,44.21 L444.55,44.08 L445.11,43.97 L445.68,43.85 L446.24,43.73 L446.81,43.61 L447.37,43.50 L447.93,43.38 L448.50,43.27 L449.06,43.16 L449.63,43.05 L450.19,42.94 L450.76,42.83 L451.32,42.73 L451.88,42.62 L452.45,42.52 L453.01,42.41 L453.58,42.31 L454.14,42.21 L454.70,42.11 L455.27,42.01 L455.83,41.91 L456.40,41.81 L456.96,41.72 L457.53,41.62 L458.09,41.53 L458.65,41.43 L459.22,41.34 L459.78,41.25 L460.35,41.16 L460.91,41.07 L461.47,40.98 L462.04,40.89 L462.60,40.81 L463.17,40.72 L463.73,40.63 L464.29,40.55 L464.86,40.47 L465.42,40.38 L465.99,40.30 L466.55,40.22 L467.12,40.14 L467.68,40.06 L468.24,39.99 L468.81,39.91 L469.37,39.83 L469.94,39.76 L470.50,39.68 L471.06,39.61 L471.63,39.53 L472.19,39.46 L472.76,39.39 L473.32,39.32 L473.89,39.25 L474.45,39.18 L475.01,39.11 L475.58,39.04 L476.14,38.97 L476.71,38.91 L477.27,38.84 L477.83,38.78 L478.40,38.71 L478.96,38.65 L479.53,38.58 L480.09,38.52 L480.66,38.46 L481.22,38.40 L481.78,38.34 L482.35,38.28 L482.91,38.22 L483.48,38.16 L484.04,38.10 L484.60,38.05 L485.17,37.99 L485.73,37.93 L486.30,37.88 L486.86,37.82 L487.42,37.77 L487.99,37.72 L488.55,37.66 L489.12,37.61 L489.68,37.56 L490.25,37.51 L490.81,37.46 L491.37,37.40 L491.94,37.35 L492.50,37.31 L493.07,37.26 L493.63,37.21 L494.19,37.16 L494.76,37.11 L495.32,37.07 L495.89,37.02 L496.45,36.98 L497.02,36.93 L497.58,36.89 L498.14,36.84 L498.71,36.80 L499.27,36.75 L499.84,36.71 L500.40,36.67 L500.96,36.63 L501.53,36.59 L502.09,36.55 L502.66,36.51 L503.22,36.47 L503.79,36.43 L504.35,36.39 L504.91,36.35 L505.48,36.31 L506.04,36.27 L506.61,36.23 L507.17,36.20 L507.73,36.16 L508.30,36.12 L508.86,36.09 L509.43,36.05 L509.99,36.02 L510.56,35.98 L511.12,35.95 L511.68,35.92 L512.25,35.88 L512.81,35.85 L513.38,35.82 L513.94,35.78 L514.50,35.75 L515.07,35.72 L515.63,35.69 L516.20,35.66 L516.76,35.63 L517.32,35.60 L517.89,35.57 L518.45,35.54 L519.02,35.51 L519.58,35.48 L520.15,35.45 L520.71,35.42 L521.27,35.39 L521.84,35.36 L522.40,35.34 L522.97,35.31 L523.53,35.28 L524.09,35.26 L524.66,35.23 L525.22,35.20 L525.79,35.18 L526.35,35.15 L526.92,35.13 L527.48,35.10 L528.04,35.08 L528.61,35.05 L529.17,35.03 L529.74,35.01 L530.30,34.98 L530.86,34.96 L531.43,34.94 L531.99,34.91 L532.56,34.89 L533.12,34.87 L533.69,34.85 L534.25,34.82 L534.81,34.80 L535.38,34.78 L535.94,34.76 L536.51,34.74 L537.07,34.72 L537.63,34.70 L538.20,34.68 L538.76,34.66 L539.33,34.64 L539.89,34.62 L540.45,34.60 L541.02,34.58 L541.58,34.56 L542.15,34.54 L542.71,34.53 L543.28,34.51 L543.84,34.49 L544.40,34.47 L544.97,34.45 L545.53,34.44 L546.10,34.42 L546.66,34.40 L547.22,34.39 L547.79,34.37 L548.35,34.35 L548.92,34.34 L549.48,34.32 L550.05,34.30 L550.61,34.29 L551.17,34.27 L551.74,34.26 L552.30,34.24 L552.87,34.23 L553.43,34.21 L553.99,34.20 L554.56,34.18 L555.12,34.17 L555.69,34.15 L556.25,34.14 L556.82,34.13 L557.38,34.11 L557.94,34.10 L558.51,34.09 L559.07,34.07 L559.64,34.06 L560.20,34.05 L560.76,34.03 L561.33,34.02 L561.89,34.01 L562.46,34.00 L563.02,33.98 L563.59,33.97 L564.15,33.96 L564.71,33.95 L565.28,33.94 L565.84,33.92 L566.41,33.91 L566.97,33.90 L567.53,33.89 L568.10,33.88 L568.66,33.87 L569.23,33.86 L569.79,33.85 L570.35,33.84 L570.92,33.82 L571.48,33.81 L572.05,33.80 L572.61,33.79 L573.18,33.78 L573.74,33.77 L574.30,33.76 L574.87,33.75 L575.43,33.74 L576.00,33.74 L576.56,33.73 L577.12,33.72 L577.69,33.71 L578.25,33.70 L578.82,33.69 L579.38,33.68 L579.95,33.67 L580.51,33.66 L581.07,33.65 L581.64,33.65 L582.20,33.64 L582.77,33.63 L583.33,33.62 L583.89,33.61 L584.46,33.60 L585.02,33.60 L585.59,33.59 L586.15,33.58 L586.72,33.57 L587.28,33.57 L587.84,33.56 L588.41,33.55 L588.97,33.54 L589.54,33.54 L590.10,33.53 L590.66,33.52 L591.23,33.52 L591.79,33.51 L592.36,33.50 L592.92,33.49 L593.48,33.49 L594.05,33.48 L594.61,33.48 L595.18,33.47 L595.74,33.46 L596.31,33.46 L596.87,33.45 L597.43,33.44 L598.00,33.44 L598.56,33.43 L599.13,33.43 L599.69,33.42 L600.25,33.41 L600.82,33.41 L601.38,33.40 L601.95,33.40 L602.51,33.39 L603.08,33.39 L603.64,33.38 L604.20,33.37 L604.77,33.37 L605.33,33.36 L605.90,33.36 L606.46,33.35 L607.02,33.35 L607.59,33.34 L608.15,33.34 L608.72,33.33 L609.28,33.33 L609.85,33.32 L610.41,33.32 L610.97,33.31 L611.54,33.31 L612.10,33.30 L612.67,33.30 L613.23,33.30 L613.79,33.29 L614.36,33.29 L614.92,33.28 L615.49,33.28 L616.05,33.27 L616.62,33.27 L617.18,33.27 L617.74,33.26 L618.31,33.26 L618.87,33.25 L619.44,33.25 L620.00,33.25" style="stroke-width: 2; stroke: rgb(74, 144, 226); stroke-opacity: 0.8;"/></g></g><g class="test-xtl" style="font-family: &quot;Open Sans&quot;, verdana, arial, sans-serif;"><text text-anchor="middle" font-size="11" dominant-baseline="hanging" stroke="none" fill="rgb(50,50,50)" fill-opacity="1" x="-0.3350000000000031" y="252">-6</text><text text-anchor="middle" font-size="11" dominant-baseline="hanging" stroke="none" fill="rgb(50,50,50)" fill-opacity="1" x="49.364999999999995" y="252">-5</text><text text-anchor="middle" font-size="11" dominant-baseline="hanging" stroke="none" fill="rgb(50,50,50)" fill-opacity="1" x="99.065" y="252">-4</text><text text-anchor="middle" font-size="11" dominant-baseline="hanging" stroke="none" fill="rgb(50,50,50)" fill-opacity="1" x="148.76500000000001" y="252">-3</text><text text-anchor="middle" font-size="11" dominant-baseline="hanging" stroke="none" fill="rgb(50,50,50)" fill-opacity="1" x="198.46500000000003" y="252">-2</text><text text-anchor="middle" font-size="11" dominant-baseline="hanging" stroke="none" fill="rgb(50,50,50)" fill-opacity="1" x="248.16500000000002" y="252">-1</text><text text-anchor="middle" font-size="11" dominant-baseline="hanging" stroke="none" fill="rgb(50,50,50)" fill-opacity="1" x="350.7" y="252">1</text><text text-anchor="middle" font-size="11" dominant-baseline="hanging" stroke="none" fill="rgb(50,50,50)" fill-opacity="1" x="400.40000000000003" y="252">2</text><text text-anchor="middle" font-size="11" dominant-baseline="hanging" stroke="none" fill="rgb(50,50,50)" fill-opacity="1" x="450.1000000000001" y="252">3</text><text text-anchor="middle" font-size="11" dominant-baseline="hanging" stroke="none" fill="rgb(50,50,50)" fill-opacity="1" x="499.8" y="252">4</text><text text-anchor="middle" font-size="11" dominant-baseline="hanging" stroke="none" fill="rgb(50,50,50)" fill-opacity="1" x="549.5" y="252">5</text><text text-anchor="middle" font-size="11" dominant-baseline="hanging" stroke="none" fill="rgb(50,50,50)" fill-opacity="1" x="599.2" y="252">6</text><text text-anchor="middle" font-size="11" dominant-baseline="hanging" stroke="none" fill="rgb(50,50,50)" fill-opacity="1" x="293.00000000000006" y="250">0</text></g><g class="test-ytl" style="font-family: &quot;Open Sans&quot;, verdana, arial, sans-serif;"><text text-anchor="end" dominant-baseline="middle" font-size="11" stroke="none" fill="rgb(50,50,50)" fill-opacity="1" x="293" y="138.95">0.5</text><text text-anchor="end" dominant-baseline="middle" font-size="11" stroke="none" fill="rgb(50,50,50)" fill-opacity="1" x="293" y="32.900000000000006">1</text></g><rect class="real" x="1" y="1" width="618" height="268" style="fill: transparent; stroke: none;"/></g></g></g><g/></g><g/><g/><g/></svg>
        <svg xmlns="http://www.w3.org/2000/svg" xmlns:xlink="http://www.w3.org/1999/xlink" width="660" height="310" style="width:660px;height:310px;font-family:Asana-Math, Asana;background:transparent;"></svg>
</svg>
